<?xml version="1.0" encoding="utf-8"?>
<!-- Generator: Adobe Illustrator 23.0.4, SVG Export Plug-In . SVG Version: 6.00 Build 0)  -->
<svg version="1.1" id="Layer_1" xmlns="http://www.w3.org/2000/svg" xmlns:xlink="http://www.w3.org/1999/xlink" x="0px" y="0px"
	 viewBox="0 0 260 260" style="enable-background:new 0 0 260 260;" xml:space="preserve">
<g>
	<path d="M86,103.7v16.4H75.9v-14.8c0-4.1-1.7-5.9-4.3-5.9c-2.9,0-5,2-5,6.4v14.3H56.4v-14.8c0-4.1-1.6-5.9-4.3-5.9
		c-3,0-5.1,2-5.1,6.4v14.3H36.9V91.4h9.6v3c2.2-2.3,5.2-3.5,8.6-3.5c3.9,0,7.3,1.4,9.3,4.5c2.3-2.9,5.8-4.5,10-4.5
		C81,91,86,94.8,86,103.7z"/>
	<path d="M90.9,105.7c0-8.6,6.8-14.8,16.2-14.8c9.5,0,16.2,6.1,16.2,14.8c0,8.7-6.7,14.9-16.2,14.9
		C97.8,120.6,90.9,114.4,90.9,105.7z M113.2,105.7c0-4.3-2.6-6.8-6-6.8c-3.4,0-6,2.4-6,6.8c0,4.4,2.6,6.9,6,6.9
		C110.6,112.6,113.2,110.1,113.2,105.7z"/>
	<path d="M126.2,105.7c0-8.6,6.8-14.8,16.2-14.8c9.5,0,16.2,6.1,16.2,14.8c0,8.7-6.7,14.9-16.2,14.9
		C133.1,120.6,126.2,114.4,126.2,105.7z M148.5,105.7c0-4.3-2.6-6.8-6-6.8c-3.4,0-6,2.4-6,6.8c0,4.4,2.6,6.9,6,6.9
		C145.9,112.6,148.5,110.1,148.5,105.7z"/>
	<path d="M163.3,110.1V80.8h10.1v28.7c0,2.2,1.2,3.3,3.1,3.3c0.8,0,1.7-0.3,2.3-0.5l0.4,7.6c-1.6,0.5-3.1,0.7-4.7,0.7
		C167.6,120.6,163.3,117,163.3,110.1z"/>
	<path d="M212.7,91.4v28.7h-9.6v-2.9c-1.9,2.3-4.7,3.3-8.5,3.3c-7.8,0-14.1-5.7-14.1-14.9c0-9.1,6.3-14.8,14.1-14.8c3.3,0,6,1,8,3
		v-2.5H212.7z M202.8,105.7c0-4.3-2.7-6.8-6-6.8s-6,2.4-6,6.8c0,4.4,2.6,6.9,6,6.9S202.8,110.1,202.8,105.7z"/>
	<path d="M217.3,114.6c0-3.6,2.6-5.9,6-5.9c3.4,0,6,2.3,6,5.9c0,3.5-2.6,6-6,6C220,120.6,217.3,118.1,217.3,114.6z"/>
</g>
</svg>
