<svg width="154" height="112" viewBox="0 0 154 112" xmlns="http://www.w3.org/2000/svg">
<path d="M16.312 12.848C19.832 12.848 22.568 13.712 24.52 15.44C26.504 17.136 27.496 19.584 27.496 22.784C27.496 25.952 26.504 28.4 24.52 30.128C22.568 31.824 19.832 32.672 16.312 32.672H11.032V44H5.32V12.848H16.312ZM16.312 27.728C18.072 27.728 19.4 27.264 20.296 26.336C21.192 25.408 21.64 24.224 21.64 22.784C21.64 21.312 21.192 20.112 20.296 19.184C19.4 18.224 18.072 17.744 16.312 17.744H11.032V27.728H16.312ZM54.9066 12.224C56.9866 12.224 58.8906 12.576 60.6186 13.28C62.3466 13.952 63.8346 14.96 65.0826 16.304C67.7066 19.12 69.0186 23.152 69.0186 28.4C69.0186 33.68 67.7066 37.76 65.0826 40.64C62.5866 43.328 59.1786 44.672 54.8586 44.672C50.5706 44.672 47.1786 43.296 44.6826 40.544C42.0586 37.696 40.7466 33.648 40.7466 28.4C40.7466 23.088 42.0586 19.024 44.6826 16.208C47.1466 13.552 50.5546 12.224 54.9066 12.224ZM63.1626 28.496C63.1626 24.912 62.4106 22.16 60.9066 20.24C59.4346 18.288 57.4346 17.312 54.9066 17.312C52.3786 17.312 50.3626 18.288 48.8586 20.24C47.3546 22.16 46.6026 24.912 46.6026 28.496C46.6026 32.048 47.3546 34.784 48.8586 36.704C50.3626 38.592 52.3786 39.536 54.9066 39.536C57.4346 39.536 59.4346 38.592 60.9066 36.704C62.4106 34.784 63.1626 32.048 63.1626 28.496ZM108.456 22.4C108.456 24.608 107.832 26.496 106.584 28.064C105.336 29.632 103.544 30.72 101.208 31.328L109.56 44H102.168L95.3042 31.856H90.9842V44H85.3202V12.848H96.8402C100.52 12.848 103.384 13.728 105.432 15.488C107.448 17.184 108.456 19.488 108.456 22.4ZM96.3122 28.064C98.3922 28.064 99.9602 27.6 101.016 26.672C102.072 25.712 102.6 24.464 102.6 22.928C102.6 21.36 102.12 20.112 101.16 19.184C100.2 18.224 98.7602 17.744 96.8402 17.744H90.9842V28.064H96.3122ZM131.523 12.848V25.664L143.811 12.848H151.587L137.859 26.864L152.499 44H145.155L134.067 30.8L131.523 33.392V44H125.811V12.848H131.523Z"/>
<path d="M15.648 68.224C17.568 68.224 19.232 68.464 20.64 68.944C22.048 69.392 23.264 70.032 24.288 70.864C26.304 72.496 27.616 74.784 28.224 77.728L22.176 78.832C21.664 77.2 20.864 75.888 19.776 74.896C18.72 73.872 17.392 73.36 15.792 73.36C13.616 73.36 11.856 74.272 10.512 76.096C9.072 78.08 8.352 80.832 8.352 84.352C8.352 87.84 8.992 90.576 10.272 92.56C11.552 94.512 13.296 95.488 15.504 95.488C17.712 95.488 19.376 94.96 20.496 93.904C21.616 92.816 22.176 91.424 22.176 89.728H28.272C28.272 93.216 27.152 95.92 24.912 97.84C22.704 99.728 19.664 100.672 15.792 100.672C11.664 100.672 8.384 99.232 5.952 96.352C3.488 93.408 2.256 89.408 2.256 84.352C2.256 79.232 3.52 75.232 6.048 72.352C8.48 69.6 11.68 68.224 15.648 68.224ZM50.1499 68.848V81.856H63.7339V68.848H69.3979V100H63.7339V86.8H50.1499V100H44.4859V68.848H50.1499ZM99.9285 68.224C102.008 68.224 103.912 68.576 105.64 69.28C107.368 69.952 108.856 70.96 110.104 72.304C112.728 75.12 114.04 79.152 114.04 84.4C114.04 89.68 112.728 93.76 110.104 96.64C107.608 99.328 104.2 100.672 99.8805 100.672C95.5925 100.672 92.2005 99.296 89.7045 96.544C87.0805 93.696 85.7685 89.648 85.7685 84.4C85.7685 79.088 87.0805 75.024 89.7045 72.208C92.1685 69.552 95.5765 68.224 99.9285 68.224ZM108.184 84.496C108.184 80.912 107.432 78.16 105.928 76.24C104.456 74.288 102.456 73.312 99.9285 73.312C97.4005 73.312 95.3845 74.288 93.8805 76.24C92.3765 78.16 91.6245 80.912 91.6245 84.496C91.6245 88.048 92.3765 90.784 93.8805 92.704C95.3845 94.592 97.4005 95.536 99.9285 95.536C102.456 95.536 104.456 94.592 105.928 92.704C107.432 90.784 108.184 88.048 108.184 84.496ZM141.19 68.848C144.71 68.848 147.446 69.712 149.398 71.44C151.382 73.136 152.374 75.584 152.374 78.784C152.374 81.952 151.382 84.4 149.398 86.128C147.446 87.824 144.71 88.672 141.19 88.672H135.91V100H130.198V68.848H141.19ZM141.19 83.728C142.95 83.728 144.278 83.264 145.174 82.336C146.07 81.408 146.518 80.224 146.518 78.784C146.518 77.312 146.07 76.112 145.174 75.184C144.278 74.224 142.95 73.744 141.19 73.744H135.91V83.728H141.19Z" />
</svg>
