<?xml version="1.0" encoding="utf-8"?>
<!-- Generator: Adobe Illustrator 23.0.4, SVG Export Plug-In . SVG Version: 6.00 Build 0)  -->
<svg version="1.1" id="Layer_1" xmlns="http://www.w3.org/2000/svg" xmlns:xlink="http://www.w3.org/1999/xlink" x="0px" y="0px"
	 viewBox="0 0 2129 2124" style="enable-background:new 0 0 2129 2124;" xml:space="preserve">
<g>
	<path d="M1636.5,699.5c0.8-5.2,1.7-8.7,1.8-12.1c0.2-19.7,0.5-39.3,0.3-59c-0.9-85.3-1.9-170.6-2.8-255.9
		c-0.6-54.3-1.4-108.6-1.9-163c-0.3-29,12.4-47,39.8-56.6c102.6-35.6,205.3-70.8,307.6-107c35.2-12.4,69.3,9,75.8,44.4
		c3.2,17.5,4.9,34.7,5.3,52.4c1.5,56.3-0.7,112.6-0.2,168.8c0.5,56.3,0.1,112.7,0.1,169c0,16.7-0.1,33.3,0.1,50
		c3.7,259,0.6,517.9,1.7,776.9c0.1,13.7,0.1,27.3,0,41c-0.2,28.1-13.4,47.5-39.6,57.6c-17.1,6.6-34.4,12.5-51.7,18.7
		c-21,7.5-41.9,15.2-63,22.5c-26.7,9.3-53.6,18.1-80.4,27.4c-21.1,7.3-42.1,14.8-63,22.5c-25.1,9.2-50.3,14.9-77.2,7.5
		c-13.1-3.6-23.9-9.9-32.4-20.3c-26.3-31.9-52.7-63.7-78.6-95.9c-84.7-105.1-169.1-210.4-253.8-315.6c-6.9-8.6-14.1-16.9-21.4-25.1
		c-7.3-8.1-13.4-7.8-19.3,1.1c-2.5,3.8-4.9,8.2-5.5,12.6c-1.8,13.2-3.9,26.4-3.9,39.7c-0.3,165.3-0.2,330.7-0.3,496
		c0,11.3-0.7,22.6-1.7,33.9c-1.9,24.1-14.8,40.2-37,48.7c-19.3,7.4-38.8,14-58.3,20.9c-25.1,8.9-50.2,17.8-75.3,26.6
		c-11.3,4-22.7,7.8-34.1,11.6c-25.2,8.5-50.5,16.9-75.7,25.5c-26.5,9-52.8,18.4-79.4,27.2c-8.8,2.9-18.2,4.1-27.3,6
		c-1,0.2-2,0.3-3,0.1c-12.3-2.6-25.3-3.6-36.7-8.3c-22.2-9-33.2-26.8-33.2-51c-0.1-93.7-0.1-187.3-0.1-281c0-8.2-0.4-16.5-0.6-26.2
		c-8.1,1-15.2,1-21.7,2.9c-18.2,5.4-36.1,11.6-54.1,17.6c-14.5,4.8-29.1,9.7-43.6,14.6c-31.2,10.7-62.3,21.6-93.6,32.1
		c-21.8,7.3-43.8,13.8-65.7,21c-9.8,3.2-19.5,6.8-29,10.9c-15.9,6.8-25.7,18.7-27.9,36.2c-0.9,7.6-1.7,15.2-1.8,22.9
		c-0.2,29.3,0,58.7-0.3,88c-0.1,14-1.2,27.9-1.3,41.9c-0.1,11.6,0.5,23.3,0.8,34.9c0.2,7,0.4,14,0.3,21c-0.5,37-1,73.9-1.8,110.9
		c-0.2,7.6-1,15.3-2.3,22.8c-3.3,19.7-14.8,33.4-32.8,41.2c-14,6.1-28.5,11.3-42.9,16.5c-23.5,8.4-47.2,16.5-70.7,24.7
		c-31.4,10.9-62.9,21.9-94.3,32.9c-28.3,9.9-56.5,20.1-84.8,29.8c-8.8,3-17.9,5.4-27.1,6.8c-5.7,0.9-11.7-0.5-17.6-1.1
		c-3.6-0.3-7.2-1.1-10.8-1.4c-28-2.3-48.8-23.3-50.7-51.3c-0.3-4-0.3-8-0.3-12c0-407.3,0-814.7,0-1222c0-6.7-0.1-13.3,0.1-20
		c0.9-24.5,13.8-42.4,36.9-50.6c23.8-8.5,47.8-16.6,71.7-24.9C402,588.9,657.4,500.2,913,411.8c22.9-7.9,46.8-13.1,70-20.1
		c18.8-5.7,37.4-12.1,55.9-18.6c79.3-27.4,158.7-54.5,237.8-82.8c31.3-11.2,56.2-1.1,73.4,22.8c49.9,69.2,100.7,137.8,151.1,206.6
		c39.8,54.3,79.5,108.7,119.4,162.9C1624.7,688.2,1628,694.5,1636.5,699.5z M442.4,1511.1c4.7-1.7,8.1-2.9,11.6-4.1
		c100.7-33.6,201.6-66.7,302.1-101c103.7-35.3,207.1-71.4,309.2-111.3c29.2-11.4,57.8-24.1,83.7-42.1
		c36.3-25.3,61.5-58.6,73.9-101.2c4.7-16.3,9.1-32.7,13.3-49.1c2.1-8.4,4.2-16.9,4.8-25.4c1.5-20.9,2.9-41.9,3.1-62.8
		c0.5-50.3,0.3-100.7,0.4-151c0.1-37.3-0.5-74.7,0.3-112c0.9-37.6,3-75.2,0.6-112.9c-2.4-37.4-8.7-73.9-21.1-109.4
		c-10-28.3-25.7-52.6-46.8-73.4c-8.5-8.3-18.2-15.8-28.3-22c-36.3-22-76.3-26.4-117.6-23c-37.1,3-72.7,12.5-107.8,24.6
		C678,520.3,432.3,605.5,186.7,690.7c-33.7,11.7-67.3,23.4-101,35c-9.7,3.3-17.5,8.5-20.6,18.6c-1.4,4.7-1.6,9.8-1.6,14.8
		c-0.1,61.3,0.1,122.6,0.1,184c0,350,0,699.9,0,1049.9c0,4.3-0.2,8.7,0.1,13c1.1,17.5,17.4,29.4,34.5,25.1c3.5-0.9,7-2.1,10.5-3.3
		c50.9-17.8,101.8-35.6,152.7-53.5c51.8-18.1,103.7-36.2,155.5-54.4c16.5-5.8,22.1-13.8,22.4-31.3c0.2-13.3,0.7-26.6,0.8-40
		c0.3-53.7,0.4-107.3,0.8-161c0.4-50.6,1-101.3,1.5-151.9C442.4,1527.6,442.4,1519.7,442.4,1511.1z M1272.3,925.4
		c-0.8,0.3-1.7,0.5-2.5,0.8c0,10.6,0.3,21.1-0.1,31.7c-0.3,6.5,1.9,11.3,6,16.2c25.6,30.3,51.4,60.4,76.3,91.3
		c86.8,107.7,173.1,215.7,259.8,323.5c21.5,26.7,43.7,53,65.6,79.4c9,10.8,20.3,13,33.3,8.9c1.9-0.6,3.8-1.2,5.7-1.9
		c55.4-19.2,110.7-38.4,166.1-57.6c42.1-14.6,84.3-29.2,126.4-43.9c17.1-5.9,23.1-14.6,23.2-32.9c0-1.3,0-2.7,0-4
		c-0.3-64-0.7-128-0.8-192c-0.2-192.7-0.3-385.3-0.5-578c-0.1-122-0.2-244-0.2-366c0-34,0-68-0.1-102c-0.1-23.5-17.7-36.5-39.5-29
		c-103.5,35.8-207,71.7-310.4,107.7c-14.9,5.2-21.2,14.3-21,30.2c0.5,45.6,1.2,91.3,1.8,136.9c0.7,59,1.4,118,2,176.9
		c0.3,24,0.3,48,0.6,72c0.7,61,1.4,122,2.1,182.9c0,3.1-0.3,6.1-0.6,11.2c-3.6-4.7-5.9-7.6-8-10.5c-65.3-89.3-130.7-178.6-196-267.9
		c-44.9-61.3-89.7-122.7-134.6-183.9c-10.3-14.1-20.8-17.8-36.4-12.4c-65.8,22.7-131.5,45.5-197.2,68.4c-1.9,0.7-3.6,2.1-6,3.5
		c13.6,3.5,26.3,6.3,38.7,10c5.4,1.6,10,1.7,15.4-0.2c49.6-17.4,99.4-34.6,149.1-51.8c3.7-1.3,7.4-2.3,11.5-3.6
		c65.6,89.6,130.6,178.7,195.9,267.6c65.4,89.1,128.6,179.8,197.1,267.3c-0.9-223.2-5.7-446.1-6.7-669.3
		c104.9-36.4,208.9-72.5,313.6-108.8c0.2,4.1,0.4,6.7,0.4,9.3c0.1,135.7,0.2,271.3,0.4,407c0.1,108,0.3,216,0.5,324
		c0.2,91,0.8,182,1,273c0.1,43.3-0.4,86.7-0.5,130c-0.1,31,0,62,0.1,92.9c0,4,0,7.9,0,12.5c-4.3,1.6-8.2,3.2-12.3,4.6
		c-93.4,32.6-186.7,65.1-280.2,97.6c-12.3,4.3-10,5.3-19-5.3c-0.9-1-1.7-2-2.6-3.1c-41.4-51.4-83.1-102.6-124.2-154.2
		c-94-118.1-188.9-235.6-285.9-351.3C1277.1,930.7,1274.6,928,1272.3,925.4z M866.1,1394.9c-8.6,3-15.7,5.6-22.9,7.9
		c-4.3,1.3-5.8,4-5.5,8.2c0.1,2,0,4,0,6c0,105,0,210,0,315c0,3.3-0.1,6.7,0.2,10c1.1,12.3,9.4,21.5,21.2,24.9
		c8,2.3,15.2-0.4,22.4-2.9c99.5-34.2,198.9-68.5,298.4-102.8c14.2-4.9,28.4-9.6,42.4-14.8c12.3-4.5,18.6-13.5,18.8-26.7
		c0.1-3.7,0-7.3,0-11c0-128.3,0-256.6,0-385c0-11.3,0.1-22.7-0.1-34c0-2-0.7-4-1.2-6.3c-8.7,14.3-17.1,27.8-25.2,41.4
		c-1.2,2.1-1.2,5.1-1.2,7.7c1.1,125-3.3,249.9-0.5,374.9c0.1,4,0,7.9,0,12.6c-115.6,39.8-230.7,79.4-347,119.5
		C866.1,1624.4,866.1,1510.6,866.1,1394.9z"/>
	<path d="M91.9,753.5c30-10.4,58.6-20.3,87.2-30.3c251.4-87.2,502.7-174.4,754.1-261.6c30.9-10.7,62.4-19.3,95-22.5
		c25.3-2.5,50.6-2,75.3,5.2c28.2,8.2,50.4,24.5,68.6,47.6c19.3,24.6,28.4,53.3,35.6,82.8c7.6,30.9,9.1,62.6,9.4,94.3
		c0.2,28.6-1.5,57.3-2.2,85.9c-0.2,7,0.3,14,0.3,21c0.2,83.3,0.6,166.7,0.5,250c0,17.6-0.1,35.6-3.5,52.8c-6,30.3-12.7,60.6-25.7,89
		c-12,26.2-31.1,46.3-54.5,62.6c-17.6,12.2-36.3,22.5-56.4,30c-72.6,27.2-145.1,54.9-218.2,80.9c-142.8,50.7-286.5,98.9-430.8,145
		c-4.1,1.3-8.1,2.8-13.4,4.6c0,15.2,0,30.1,0,45.1c-0.2,60-0.5,120-0.7,179.9c-0.2,54-0.4,108-0.7,162c0,4.3-0.4,8.6-0.7,14.3
		c-105.8,37-211.9,74.2-319.7,111.9c0-4.6,0-7.8,0-11c0.5-104,1.1-208,1.3-312c0.1-41-1.1-82-1.1-123c0.3-173.7,0.9-347.3,1.1-521
		c0.1-89.3-0.6-178.7-0.9-268C91.9,764.1,91.9,759.2,91.9,753.5z M416.4,1235.1c5.6-1.7,9.7-2.9,13.7-4.2
		c91.4-29,181.8-60.7,274.3-86.3c34-9.4,67.6-20.5,99.2-36.6c13.9-7.1,27.2-15.4,39.8-24.7c15.6-11.5,23.2-27,23.1-47.3
		c-0.4-67.9,0.3-135.9,0.5-203.8c0-11.6-4.4-17.9-15.3-21.9c-4-1.5-8.3-2.3-12.6-3.1c-19.1-3.2-37.9,0.1-56.6,3.1
		c-32.9,5.4-65.3,13.5-96.8,24.2c-87,29.5-173.7,59.8-260.5,89.9c-8.7,3-9.3,4.3-9.2,15.2c0.3,37.6,0.8,75.3,0.8,112.9
		c0,42.3-0.4,84.6-0.6,126.9C416.3,1197.4,416.4,1215.4,416.4,1235.1z"/>
	<path d="M444.3,1196.4c0.6-83.4,1.3-165.3,1.9-247.1c2.1-1.1,3.5-2.1,5-2.6c78-27.1,155.8-54.5,234-81.1
		c33.4-11.4,67.6-20.3,102.4-26.3c16.1-2.8,32.3-4.4,49.1-2.5c0.4,2.1,1.1,3.9,1.1,5.8c0.5,55,1,109.9,1.3,164.9
		c0.1,11-1.1,22-1.1,32.9c0,6.5-2,12.1-6.8,16c-8.5,6.9-17.1,13.9-26.5,19.4c-21.9,12.9-45.6,22.1-69.7,29.6
		c-34.9,10.9-70.3,20.5-105.2,31.5c-57.8,18.2-115.3,37.2-173,55.8C453.2,1194,449.5,1195,444.3,1196.4z M812.1,875.3
		c-7.2,0-12.8-0.3-18.3,0.1c-18.1,1.2-35.4,6.3-52.6,11.7c-31.8,9.9-63.6,19.7-95.2,30.2c-29.1,9.7-57.8,20.2-86.7,30.4
		c-16.3,5.8-32.7,11.5-48.7,17.9c-15,6-26,16.3-29.6,32.7c-1.4,6.5-2.4,13.2-2.4,19.8c-0.3,39.7-0.3,79.3-0.1,119
		c0,4.6,1.3,9.2,2.5,13.7c1,3.7,3.7,5.3,7.7,4.1c6.4-1.9,12.8-3.7,19.2-5.6c51.5-16,103-32,154.5-48.2c29.8-9.4,59.7-18.7,89.3-28.8
		c18.3-6.3,35.7-14.6,51.9-25.5c6.3-4.2,9.4-9.2,9.4-17.2c0-34,1-68,1.1-101.9C814.1,910.7,812.8,893.8,812.1,875.3z"/>
</g>
</svg>
